<?xml version="1.0" encoding="utf-8"?>
<!-- Generator: Adobe Illustrator 23.1.0, SVG Export Plug-In . SVG Version: 6.00 Build 0)  -->
<svg version="1.1" id="Layer_1" xmlns="http://www.w3.org/2000/svg" xmlns:xlink="http://www.w3.org/1999/xlink" x="0px" y="0px"
	 viewBox="0 0 100 100" style="enable-background:new 0 0 100 100;" xml:space="preserve">
<style type="text/css">
	.st0{fill:#DE6841;}
	.st1{fill-rule:evenodd;clip-rule:evenodd;}
</style>
	<path class="st0" d="M0,48.1C0,10.7,10.7,0,50,0s50,10.7,50,48.1c0,41.3-10.7,51.9-50,51.9S0,89.3,0,48.1z"/>
	<rect x="46.3" y="29.8" transform="matrix(0.7071 -0.7071 0.7071 0.7071 -12.3182 53.0589)" class="st1" width="23.2" height="23.2"/>
	<path class="st1" d="M20.6,78.7L20.6,78.7c-1.7-1.7-1.7-4.4,0-6L63.3,30c1.7-1.7,4.4-1.7,6,0l0,0c1.7,1.7,1.7,4.4,0,6L26.6,78.7
	C24.9,80.4,22.3,80.4,20.6,78.7z"/>
	<path class="st1" d="M59.6,66L59.6,66c-1.3-1.3-1.3-3.3,0-4.5L78,43.1c1.3-1.3,3.3-1.3,4.5,0v0c1.3,1.3,1.3,3.3,0,4.5L64.1,66
	C62.9,67.3,60.8,67.3,59.6,66z"/>
	<path class="st1" d="M33.3,39.7L33.3,39.7c-1.3-1.3-1.3-3.3,0-4.5l18.4-18.4c1.3-1.3,3.3-1.3,4.5,0l0,0c1.3,1.3,1.3,3.3,0,4.5
	L37.8,39.7C36.5,41,34.5,41,33.3,39.7z"/>
</svg>
