<svg width="750" height="750" viewBox="0 0 750 750" fill="none" xmlns="http://www.w3.org/2000/svg">
<path fill-rule="evenodd" clip-rule="evenodd" d="M169.029 230.48C154.236 244.135 154.236 266.894 169.029 281.688C182.685 296.481 205.444 296.481 220.237 281.688L429.621 72.304C444.414 58.6485 444.414 35.8894 429.621 21.096C415.966 6.30262 393.206 6.30262 378.413 21.096L169.029 230.48ZM262.252 300.941L448.93 114.262L508.196 173.528L510.417 171.307C529.762 151.962 560.487 151.962 578.694 171.307C598.039 190.652 598.039 221.377 578.694 239.584L576.473 241.805L635.608 300.941L448.93 487.619L389.795 428.484L92.7872 725.491C73.4419 744.836 43.8551 744.836 24.5099 725.491C5.16467 706.146 5.16467 675.421 24.5099 657.214L321.517 360.206L262.252 300.941ZM468.31 580.97C453.517 566.177 453.517 543.417 468.31 529.762L677.694 320.378C692.487 305.585 715.246 305.585 728.902 320.378C743.695 335.172 743.695 357.931 728.902 371.586L519.518 580.97C505.863 595.763 481.966 595.763 468.31 580.97Z" fill="#D6663E"/>
</svg>
