<?xml version="1.0" encoding="utf-8"?>
<!-- Generator: Adobe Illustrator 23.1.0, SVG Export Plug-In . SVG Version: 6.00 Build 0)  -->
<svg version="1.1" id="Layer_1" xmlns="http://www.w3.org/2000/svg" xmlns:xlink="http://www.w3.org/1999/xlink" x="0px" y="0px"
	 viewBox="0 0 66 66" style="enable-background:new 0 0 66 66;" xml:space="preserve">
<style type="text/css">
	.st0{fill-rule:evenodd;clip-rule:evenodd;}
</style>
<g>
	
		<rect x="27.7" y="14.4" transform="matrix(0.7071 -0.7071 0.7071 0.7071 -6.9855 35.7515)" class="st0" width="23.9" height="23.9"/>
	<path class="st0" d="M1.3,64.7L1.3,64.7c-1.7-1.7-1.7-4.5,0-6.2l43.9-43.9c1.7-1.7,4.5-1.7,6.2,0l0,0c1.7,1.7,1.7,4.5,0,6.2
		L7.5,64.7C5.8,66.4,3,66.4,1.3,64.7z"/>
	<path class="st0" d="M41.4,51.6L41.4,51.6c-1.3-1.3-1.3-3.4,0-4.7L60.3,28c1.3-1.3,3.4-1.3,4.7,0l0,0c1.3,1.3,1.3,3.4,0,4.7
		L46.1,51.6C44.8,52.9,42.7,52.9,41.4,51.6z"/>
	<path class="st0" d="M14.3,24.6L14.3,24.6c-1.3-1.3-1.3-3.4,0-4.7L33.3,1c1.3-1.3,3.4-1.3,4.7,0l0,0c1.3,1.3,1.3,3.4,0,4.7L19,24.6
		C17.7,25.9,15.6,25.9,14.3,24.6z"/>
</g>
</svg>
