<?xml version="1.0" encoding="utf-8"?>
<!-- Generator: Adobe Illustrator 23.1.0, SVG Export Plug-In . SVG Version: 6.00 Build 0)  -->
<svg version="1.1" id="Layer_1" xmlns="http://www.w3.org/2000/svg" xmlns:xlink="http://www.w3.org/1999/xlink" x="0px" y="0px"
	 viewBox="0 0 100 100" style="enable-background:new 0 0 100 100;" xml:space="preserve">
<style type="text/css">
	.st0{fill:#DE6841;}
	.st1{fill:#FFFFFF;}
</style>
<g>
	<path class="st0" d="M0,48.1C0,10.7,10.7,0,50,0s50,10.7,50,48.1c0,41.3-10.7,51.9-50,51.9S0,89.3,0,48.1z"/>
	<g transform="translate(0.000000,1280.000000) scale(0.100000,-0.100000)">
		<path d="M485.4,12662.4c-60.4-5.2-114.3-35.9-149.4-84.7c-6.4-8.9-11.7-17.9-17.2-28.9c-8.1-16.4-13.2-31.2-16.7-48.5
			c-4.1-20.5-4.6-28.2-4.6-98.7v-57.8h-25.8h-25.8v-203.3v-203.3H500h254.2v203.3v203.3H730h-24.2v62c0,36.4-0.2,64.7-0.5,68.7
			c-3.5,42.3-18.3,79.5-45,112.8c-5.8,7.4-22.8,24.3-30.1,30.1c-31.4,25-64.9,39.1-104.6,44.3
			C517.1,12662.8,493.7,12663.3,485.4,12662.4z M509.9,12582.6c35-2.8,64.3-17.9,87.1-44.5c11.6-13.6,20.5-31.2,24.9-49.1
			c3.7-14.9,3.5-12.3,3.8-81.8l0.3-63.5h-124h-124v62.5c0,66.8,0,67.1,2.9,79.9c2.8,13,10,29.9,17.2,40.7
			c17.8,26.5,44.6,45.4,74.9,52.4C486.6,12582.6,497.7,12583.6,509.9,12582.6z"/>
	</g>
	<g>
		<path class="st1" d="M41.6,74.5V57.2c0-1.3,1.1-2.4,2.4-2.4h12.3c1.2,0,2.2,1,2.2,2.2s-1,2.2-2.2,2.2h-9.9v4.5h8.4
			c1.2,0,2.2,1,2.2,2.2S56,68,54.8,68h-8.4v4.6h10c1.2,0,2.2,1,2.2,2.2s-1,2.2-2.2,2.2H44C42.7,77,41.6,75.9,41.6,74.5z"/>
	</g>
</g>
</svg>
